<?xml version="1.0" standalone="no"?>
<!DOCTYPE svg PUBLIC "-//W3C//DTD SVG 20010904//EN"
 "http://www.w3.org/TR/2001/REC-SVG-20010904/DTD/svg10.dtd">
<svg version="1.0" xmlns="http://www.w3.org/2000/svg"
 width="32px" height="32px" viewBox="0 0 300.000000 300.000000"
 preserveAspectRatio="xMidYMid meet">
<metadata>
Created by potrace 1.10, written by Peter Selinger 2001-2011
</metadata>
<g transform="translate(0.000000,300.000000) scale(0.100000,-0.100000)"
fill="#000000" stroke="none">
<path d="M1760 2595 c-7 -8 -10 -26 -7 -41 8 -42 -15 -54 -101 -54 -104 -1
-147 -21 -203 -97 -23 -32 -51 -64 -62 -72 -24 -17 -35 -48 -47 -128 -10 -76
-4 -99 45 -156 44 -51 44 -61 3 -53 -18 4 -57 11 -85 15 -49 7 -55 6 -90 -23
-21 -17 -49 -43 -61 -58 -13 -16 -28 -28 -34 -28 -11 0 -81 72 -106 110 -13
18 -17 47 -17 116 0 76 -3 95 -19 113 -35 39 -76 21 -76 -34 0 -63 -41 -72
-83 -20 -40 50 -85 45 -116 -14 -18 -34 17 -100 71 -132 58 -35 106 -86 114
-122 10 -50 68 -169 96 -199 33 -35 102 -56 129 -40 10 7 27 12 38 12 10 0 35
7 54 15 50 21 52 20 66 -25 17 -57 16 -119 -2 -163 -12 -29 -14 -44 -6 -65 6
-15 11 -115 13 -223 1 -119 6 -202 12 -210 6 -8 17 -41 24 -74 7 -33 17 -64
21 -70 4 -5 15 -36 25 -68 l18 -58 -57 -57 c-98 -100 -106 -182 -17 -182 21 0
42 5 45 10 4 6 10 8 14 5 5 -2 16 4 25 14 10 10 37 32 62 47 25 16 47 39 50
51 4 13 9 23 13 23 4 0 7 21 7 47 -1 30 4 48 12 51 10 3 12 -8 7 -49 -7 -66 8
-98 55 -121 19 -10 47 -28 62 -40 27 -22 37 -26 95 -35 25 -4 34 -1 43 17 22
41 4 85 -66 157 -36 36 -61 69 -57 72 5 3 9 15 9 26 0 20 17 74 35 107 5 10 9
26 9 36 0 10 4 22 8 28 11 12 28 66 46 144 13 59 18 97 32 266 2 31 9 65 15
76 6 11 8 37 4 59 -4 21 -5 40 -4 41 2 2 -4 13 -13 26 -11 17 -13 31 -8 50 5
15 12 40 17 56 12 42 35 53 78 37 62 -22 129 -25 166 -7 36 18 99 93 99 118 0
8 3 18 8 22 4 4 7 11 8 14 8 54 19 96 28 105 6 7 11 20 11 30 0 9 4 18 9 20 6
1 21 11 34 22 84 70 103 90 114 126 10 36 9 41 -11 63 -12 13 -34 26 -48 29
-24 4 -46 -12 -87 -68 -9 -12 -15 -14 -20 -7 -4 6 -13 9 -21 5 -12 -4 -15 4
-15 34 0 62 -48 94 -82 56 -22 -25 -28 -87 -16 -159 10 -56 9 -65 -10 -95 -11
-19 -39 -52 -61 -73 l-40 -39 -55 51 c-69 65 -112 75 -189 43 -16 -6 -37 -11
-48 -11 -17 0 -18 3 -7 23 7 12 28 39 46 60 35 41 38 57 21 157 -7 45 -18 73
-35 91 -35 37 -30 46 27 51 103 10 170 125 120 206 -23 35 -59 43 -81 17z m50
-22 c17 -22 21 -37 17 -66 -9 -68 -52 -97 -160 -112 -64 -9 -91 -35 -83 -80 6
-29 3 -37 -20 -51 -24 -16 -29 -16 -53 -3 -14 8 -30 25 -36 37 -13 29 -21 28
-56 -9 -24 -26 -29 -40 -30 -88 -2 -67 -2 -59 6 -96 l6 -30 -19 23 c-16 17
-20 37 -21 84 0 34 5 71 11 82 15 30 60 76 73 76 6 0 17 16 24 35 7 19 29 47
48 62 34 26 43 28 134 28 81 0 101 4 118 19 23 21 28 65 11 97 -16 29 5 23 30
-8z m-172 -239 c44 -26 64 -62 72 -132 7 -51 5 -72 -6 -94 -8 -15 -19 -28 -24
-28 -13 0 -13 6 5 40 9 17 11 30 6 30 -6 0 -7 15 -4 35 8 48 -13 92 -58 125
-21 15 -35 30 -32 34 9 9 12 8 41 -10z m-175 -78 c4 -9 -3 -16 -16 -20 -27 -7
-32 -1 -16 18 18 19 25 20 32 2z m682 -6 c3 -11 3 -29 0 -41 -9 -27 20 -59 52
-59 22 0 51 24 90 73 13 16 53 12 53 -4 0 -22 -33 -83 -37 -70 -4 10 -7 11
-13 1 -5 -8 -31 -14 -64 -15 -45 -1 -60 3 -80 22 -20 19 -24 29 -19 58 4 24 2
35 -7 35 -18 0 -8 -142 12 -172 14 -21 13 -26 -20 -78 -19 -30 -56 -80 -82
-111 -55 -67 -57 -67 -153 22 l-69 63 -61 -13 c-42 -8 -69 -20 -82 -36 -11
-13 -38 -29 -59 -35 -72 -23 -196 5 -196 43 0 16 -118 38 -141 26 -8 -4 -45
-37 -82 -73 -37 -36 -72 -66 -77 -66 -15 0 -90 84 -136 153 -41 60 -41 61 -27
96 20 47 9 171 -12 149 -3 -2 0 -19 6 -36 10 -29 8 -34 -18 -57 -22 -19 -35
-24 -60 -20 -17 3 -34 1 -38 -5 -7 -12 -38 2 -74 34 -23 20 -23 20 -13 1 15
-29 39 -49 102 -83 52 -29 55 -33 90 -119 42 -105 83 -177 111 -196 27 -19 99
-3 186 40 l61 31 31 -112 c17 -61 31 -123 31 -137 0 -23 6 -28 46 -39 60 -17
257 -17 307 -1 28 9 37 18 37 35 0 12 11 65 25 117 13 51 25 104 25 117 0 27
5 27 58 2 39 -19 143 -50 168 -50 37 0 95 92 135 214 l30 93 67 44 c42 28 72
56 82 76 15 32 30 43 30 22 0 -36 -58 -97 -126 -132 -29 -15 -36 -28 -68 -130
-29 -93 -43 -123 -78 -162 l-42 -47 -62 5 c-34 2 -85 15 -115 29 l-54 24 -25
-105 c-21 -85 -24 -108 -13 -114 7 -4 13 -17 13 -27 0 -21 -40 -42 -120 -63
-40 -11 -45 -15 -46 -42 0 -16 -4 -38 -8 -47 -7 -15 -3 -16 56 -2 34 8 73 21
85 29 28 19 33 19 33 0 0 -8 -4 -15 -10 -15 -6 0 -10 -37 -10 -91 0 -109 -17
-189 -81 -379 -27 -80 -49 -158 -48 -175 0 -24 10 -38 50 -68 56 -42 91 -92
87 -122 -4 -30 -60 -24 -106 12 -20 15 -53 35 -73 44 l-36 17 -6 93 c-4 52
-10 118 -13 146 -4 32 -3 53 3 53 12 0 33 -137 33 -217 0 -61 0 -62 34 -73 19
-6 40 -18 47 -26 16 -20 89 -57 96 -50 11 10 -42 76 -85 107 -75 54 -75 81 2
309 47 142 60 205 71 332 l7 77 -48 -15 c-27 -8 -62 -14 -79 -13 -16 1 -42 -3
-57 -9 -21 -9 -35 -9 -55 0 -16 6 -40 10 -55 9 -14 -1 -45 3 -68 9 -34 9 -45
9 -51 -2 -12 -19 -11 -224 2 -294 6 -32 26 -110 45 -173 50 -165 47 -181 -36
-246 -33 -25 -75 -83 -68 -91 10 -9 45 5 76 31 15 12 43 31 62 42 33 18 35 23
37 74 4 91 24 219 35 219 7 0 8 -18 4 -47 -3 -27 -9 -92 -13 -146 l-6 -98 -46
-25 c-25 -14 -61 -36 -80 -49 -19 -14 -47 -25 -62 -25 -26 0 -29 3 -29 32 0
27 11 43 65 94 78 73 80 86 35 219 -50 148 -62 225 -58 375 2 74 -1 141 -6
148 -5 8 -4 18 3 25 8 8 11 8 11 -1 0 -14 49 -36 103 -46 21 -4 45 -10 54 -13
13 -5 13 -3 4 15 -14 26 -14 67 -1 93 10 17 7 19 -23 19 -19 0 -54 7 -77 15
-50 17 -57 18 -45 6 6 -6 37 -17 69 -25 69 -18 81 -26 40 -26 -47 0 -134 45
-134 70 0 11 6 23 14 26 11 4 9 24 -12 107 -15 56 -27 103 -28 105 0 1 -30
-11 -66 -28 -36 -17 -88 -33 -115 -37 -46 -5 -52 -3 -77 23 -48 50 -74 96
-106 189 -31 90 -31 90 -88 121 -36 19 -68 47 -87 73 l-30 43 28 24 c15 13 32
24 37 24 4 0 17 -15 28 -34 26 -44 81 -59 112 -31 16 14 18 26 13 61 -5 40 -4
44 15 44 36 0 55 -108 30 -176 -10 -29 -9 -35 22 -75 18 -24 54 -65 79 -91
l45 -48 72 70 c79 77 86 79 174 56 36 -10 61 -11 72 -5 19 10 26 -5 8 -16 -19
-12 -10 -26 25 -41 44 -18 103 -18 149 1 40 17 42 21 21 44 -13 15 -10 17 28
17 23 1 69 5 103 9 l61 7 67 -61 c38 -33 72 -61 76 -61 11 0 88 93 123 147 25
40 26 43 12 77 -18 43 -20 147 -3 164 18 18 36 15 43 -8z m-651 -36 c27 -10
17 -24 -13 -18 -16 3 -38 1 -50 -5 -11 -7 -21 -8 -21 -3 0 10 37 30 57 31 6 1
18 -2 27 -5z m56 -18 c0 -31 -16 -42 -23 -16 -3 11 -1 20 5 20 5 0 6 5 3 10
-3 6 -1 10 4 10 6 0 11 -11 11 -24z m84 18 c29 -11 17 -19 -28 -19 -34 0 -42
3 -34 13 11 13 37 16 62 6z m-136 -67 c-2 -17 -10 -22 -33 -22 -35 0 -47 31
-20 51 25 18 57 0 53 -29z m140 4 c-2 -22 -8 -26 -33 -26 -35 0 -48 31 -21 51
27 20 58 6 54 -25z m563 -41 c11 0 17 -4 14 -10 -3 -5 -15 -10 -26 -10 -10 0
-19 -5 -19 -11 0 -5 -4 -7 -10 -4 -5 3 -10 15 -10 27 0 14 5 18 16 14 9 -3 25
-6 35 -6z m-719 -39 c40 -13 96 -7 140 15 35 18 38 18 38 -7 0 -28 -61 -85
-99 -94 -63 -14 -151 51 -151 111 0 15 2 16 18 2 9 -9 34 -21 54 -27z m-581 7
c0 -10 2 -10 6 0 5 13 23 17 23 5 -1 -26 -17 -34 -44 -22 -19 9 -23 15 -14 21
19 11 28 10 29 -4z m703 -135 c7 -16 -46 -26 -94 -18 -41 7 -53 21 -22 27 41
7 112 2 116 -9z m204 -14 c15 -11 46 -38 69 -60 31 -29 54 -41 86 -45 42 -6
45 -5 85 41 22 26 45 44 51 41 11 -7 3 -46 -10 -46 -5 0 -9 -5 -9 -12 0 -24
-63 -78 -91 -78 -32 0 -60 9 -55 19 2 3 -9 7 -26 7 -17 1 -33 6 -37 11 -3 6
-22 13 -42 17 -43 8 -51 0 -69 -67 -7 -26 -17 -50 -21 -53 -5 -3 -9 -22 -9
-43 0 -60 -11 -101 -27 -101 -8 0 -12 -4 -9 -9 3 -5 -1 -12 -10 -15 -21 -8
-104 -8 -104 1 0 4 32 37 70 74 39 38 70 71 70 75 0 3 -9 23 -19 43 -11 20
-22 44 -25 54 -3 9 -17 22 -31 27 -53 20 -70 60 -25 60 10 0 32 13 49 29 17
16 48 33 68 39 21 5 40 10 41 11 2 1 16 -8 30 -20z m-452 -1 c3 -4 9 -6 14 -3
5 3 22 -8 38 -25 17 -16 39 -30 50 -30 22 0 46 -23 34 -34 -4 -4 -21 -13 -37
-20 -21 -9 -39 -30 -58 -66 -29 -55 -37 -113 -14 -105 11 5 127 -94 127 -108
0 -11 -93 -8 -110 3 -8 5 -11 10 -6 10 6 0 2 6 -7 13 -18 13 -39 91 -30 114 3
7 -1 21 -9 31 -8 9 -20 36 -26 58 -18 61 -29 66 -87 41 -28 -12 -51 -25 -53
-29 -2 -4 -14 -8 -27 -8 -13 0 -27 -4 -30 -10 -15 -24 -54 -9 -92 34 -36 42
-69 106 -54 106 4 0 30 -22 57 -50 27 -27 57 -50 67 -50 20 0 73 25 79 37 1 5
27 29 56 55 39 35 60 46 83 46 16 -1 32 -5 35 -10z m197 -96 c-7 -4 13 -15 48
-26 l59 -19 0 -60 c0 -69 -19 -108 -66 -133 -18 -10 -32 -23 -31 -28 1 -6 -7
-11 -18 -11 -11 0 -19 5 -18 11 1 7 -11 17 -28 24 -36 15 -69 55 -70 84 0 11
-3 15 -6 9 -7 -18 -30 -16 -37 3 -4 10 1 18 13 21 14 4 21 15 23 40 3 32 8 37
58 59 30 13 51 23 46 24 -5 0 -3 7 4 15 10 12 16 13 24 5 8 -8 8 -13 -1 -18z
m147 -142 c0 -11 -7 -20 -15 -20 -8 0 -15 9 -15 20 0 11 7 20 15 20 8 0 15 -9
15 -20z m-390 -198 c0 -9 102 -62 119 -62 6 0 11 -6 11 -14 0 -12 -11 -11 -66
4 -36 11 -72 24 -80 31 -19 15 -18 49 1 49 8 0 15 -4 15 -8z m496 -7 c4 -8 1
-22 -6 -30 -14 -16 -149 -60 -158 -51 -9 10 3 16 64 32 32 8 66 22 74 30 11
11 2 9 -30 -5 -68 -31 -83 -24 -20 8 67 34 69 35 76 16z m-282 -174 c26 -6 46
-6 58 0 10 5 39 14 65 18 39 8 49 6 59 -7 15 -20 7 -158 -12 -194 -8 -15 -14
-38 -14 -52 0 -14 -4 -28 -10 -31 -5 -3 -10 -17 -10 -31 0 -13 -4 -24 -10 -24
-5 0 -10 -10 -10 -22 0 -28 -22 -88 -32 -88 -4 0 -8 -10 -9 -22 -1 -18 -4 -15
-13 12 -16 52 -26 62 -49 56 -12 -3 -27 0 -34 6 -21 17 -40 -8 -51 -67 -6 -27
-10 -40 -11 -27 0 13 -5 20 -11 17 -6 -4 -10 7 -10 24 0 17 -4 31 -10 31 -5 0
-10 13 -10 28 0 15 -4 32 -9 37 -5 6 -11 28 -14 50 -3 22 -10 56 -16 75 -7 19
-11 73 -10 120 3 123 16 130 173 91z"/>
<path d="M1720 1504 c-19 -7 -49 -13 -67 -13 -17 -1 -35 -6 -38 -11 -9 -15 72
-1 120 20 46 21 36 24 -15 4z"/>
<path d="M1508 1473 c-25 -30 -29 -54 -13 -79 31 -47 105 -20 105 38 0 49 -61
76 -92 41z m52 -28 c25 -30 -10 -61 -38 -33 -7 7 -8 17 -1 30 12 22 23 23 39
3z"/>
<path d="M1483 1783 c-31 -16 -33 -20 -33 -71 0 -48 4 -57 31 -83 43 -40 81
-39 125 5 29 29 34 41 34 83 0 47 -1 48 -43 66 -51 21 -72 21 -114 0z m103
-18 c12 -8 25 -11 29 -7 4 4 5 -17 2 -46 -10 -84 -64 -116 -121 -71 -22 17
-26 28 -26 70 0 42 3 51 23 59 34 13 70 12 93 -5z"/>
<path d="M1122 2347 c-31 -33 -28 -62 9 -88 31 -21 31 -21 57 -2 44 33 48 47
23 82 -27 37 -59 40 -89 8z m82 -32 l21 -6 -23 -9 c-12 -5 -25 -16 -28 -25 -8
-19 -24 -20 -24 -2 0 8 -10 19 -22 25 l-23 11 22 6 c11 4 24 17 28 28 l6 22
11 -22 c6 -12 20 -24 32 -28z"/>
<path d="M1817 2170 c-20 -16 -26 -29 -25 -56 1 -19 5 -37 10 -40 8 -5 10 1
12 50 1 23 8 32 33 42 29 13 32 12 49 -13 15 -24 15 -30 2 -52 -9 -18 -22 -26
-40 -26 -14 0 -30 -3 -34 -7 -4 -5 11 -8 34 -8 36 0 44 4 57 29 16 31 12 54
-13 84 -20 23 -53 22 -85 -3z"/>
<path d="M1832 2123 c4 -35 43 -45 53 -14 9 28 -1 41 -31 41 -22 0 -25 -4 -22
-27z"/>
<path d="M1208 2114 c18 -13 21 -19 11 -30 -16 -19 -24 -18 -37 9 -7 14 -11
17 -11 7 -1 -19 18 -40 36 -40 7 0 17 9 23 21 13 23 -2 49 -28 49 -12 0 -11
-4 6 -16z"/>
<path d="M2166 1614 c-31 -32 -33 -56 -6 -94 27 -38 53 -45 89 -24 39 23 55
58 40 87 -33 64 -78 75 -123 31z m92 -20 c12 -20 22 -38 21 -42 -1 -15 -60
-54 -74 -48 -8 3 -24 20 -34 37 l-20 32 36 29 c20 15 39 28 42 28 3 -1 16 -17
29 -36z"/>
<path d="M2198 1586 c-21 -16 -22 -25 -4 -49 12 -15 18 -16 35 -7 23 12 27 40
9 58 -15 15 -19 15 -40 -2z"/>
<path d="M731 1603 c-45 -56 -35 -96 29 -123 36 -15 64 -1 85 41 20 38 12 65
-28 90 -43 26 -62 24 -86 -8z m75 -9 c40 -31 41 -40 10 -78 l-23 -30 -36 23
c-21 12 -37 27 -37 32 0 9 42 79 48 79 2 0 19 -12 38 -26z"/>
<path d="M756 1568 c-17 -23 -14 -33 14 -48 14 -8 21 -4 35 16 16 24 16 26 -2
40 -24 18 -29 17 -47 -8z"/>
<path d="M1936 1348 c-22 -31 -20 -51 7 -76 31 -29 51 -28 76 4 27 34 26 48
-1 74 -29 26 -63 26 -82 -2z m69 -38 c0 -18 -6 -26 -23 -28 -13 -2 -25 3 -28
12 -10 26 4 48 28 44 17 -2 23 -10 23 -28z"/>
<path d="M1056 1344 c-23 -22 -20 -51 8 -69 20 -13 28 -14 45 -4 28 18 33 47
10 70 -23 23 -42 24 -63 3z m51 -12 c9 -15 7 -23 -8 -43 -15 -20 -19 -21 -19
-6 0 9 -7 17 -15 17 -19 0 -19 6 3 29 22 25 25 25 39 3z"/>
</g>
</svg>
